# xmcd CD database file
#
# Track frame offsets:
#	150
#	16245
#	30607
#	46792
#	61295
#	76230
#	89762
#	106435
#	123580
#	139387
#	155440
#	167322
#	181830
#	200710
#
# Disc length: 2866 seconds
#
# Revision: 0
# Processed by: cddbd v1.5.1PL0 Copyright (c) Steve Scherf et al.
# Submitted via: CDex 1.51
#
DISCID=b50b300e
DTITLE=Harold Melvin - The Best of Harold Melvin and The Blue Notes
DYEAR=2004
DGENRE=Rhythmic Soul
TTITLE0=The Love I Lost
TTITLE1=Where Are All My Friends
TTITLE2=If You Don't Know Me By Now
TTITLE3=Bad Luck
TTITLE4=Satisfaction Guaranteed
TTITLE5=My Girl
TTITLE6=Hope That We Can Be Together Soon
TTITLE7=Ain't No Stoppin' Us Now
TTITLE8=Wake Up Everybody
TTITLE9=For The Love Of Money
TTITLE10=Get Ready
TTITLE11=I Miss You
TTITLE12=Could It Be I'm Falling In Love 
TTITLE13=Tell The World How I Feel About 'Cha Baby
EXTD=YEAR: 2004
EXTT0=
EXTT1=
EXTT2=
EXTT3=
EXTT4=
EXTT5=
EXTT6=
EXTT7=
EXTT8=
EXTT9=
EXTT10=
EXTT11=
EXTT12=
EXTT13=
PLAYORDER=
